<mxfile host="app.diagrams.net" modified="2023-06-17T22:07:02.454Z" agent="Mozilla/5.0 (Windows NT 10.0; Win64; x64) AppleWebKit/537.36 (KHTML, like Gecko) Chrome/114.0.0.0 Safari/537.36 Edg/114.0.1823.51" etag="c0y-noG26orw3HZWqGDz" version="21.4.0" type="github">
  <diagram name="Página-1" id="3J-9o4IEl47QUGnqn3_l">
    <mxGraphModel dx="768" dy="403" grid="1" gridSize="10" guides="1" tooltips="1" connect="1" arrows="1" fold="1" page="1" pageScale="1" pageWidth="827" pageHeight="1169" math="0" shadow="0">
      <root>
        <mxCell id="0" />
        <mxCell id="1" parent="0" />
        <mxCell id="MPS-d_zFgnI81fA_pEZz-3" value="Entidad" style="swimlane;fontStyle=0;childLayout=stackLayout;horizontal=1;startSize=30;horizontalStack=0;resizeParent=1;resizeParentMax=0;resizeLast=0;collapsible=1;marginBottom=0;whiteSpace=wrap;html=1;" vertex="1" parent="1">
          <mxGeometry x="100" y="160" width="140" height="120" as="geometry" />
        </mxCell>
        <mxCell id="MPS-d_zFgnI81fA_pEZz-4" value="Item 1(atributo)" style="text;strokeColor=none;fillColor=none;align=left;verticalAlign=middle;spacingLeft=4;spacingRight=4;overflow=hidden;points=[[0,0.5],[1,0.5]];portConstraint=eastwest;rotatable=0;whiteSpace=wrap;html=1;" vertex="1" parent="MPS-d_zFgnI81fA_pEZz-3">
          <mxGeometry y="30" width="140" height="30" as="geometry" />
        </mxCell>
        <mxCell id="MPS-d_zFgnI81fA_pEZz-5" value="Item 2" style="text;strokeColor=none;fillColor=none;align=left;verticalAlign=middle;spacingLeft=4;spacingRight=4;overflow=hidden;points=[[0,0.5],[1,0.5]];portConstraint=eastwest;rotatable=0;whiteSpace=wrap;html=1;" vertex="1" parent="MPS-d_zFgnI81fA_pEZz-3">
          <mxGeometry y="60" width="140" height="30" as="geometry" />
        </mxCell>
        <mxCell id="MPS-d_zFgnI81fA_pEZz-6" value="Item 3" style="text;strokeColor=none;fillColor=none;align=left;verticalAlign=middle;spacingLeft=4;spacingRight=4;overflow=hidden;points=[[0,0.5],[1,0.5]];portConstraint=eastwest;rotatable=0;whiteSpace=wrap;html=1;" vertex="1" parent="MPS-d_zFgnI81fA_pEZz-3">
          <mxGeometry y="90" width="140" height="30" as="geometry" />
        </mxCell>
        <mxCell id="MPS-d_zFgnI81fA_pEZz-7" value="Entidad" style="swimlane;fontStyle=0;childLayout=stackLayout;horizontal=1;startSize=30;horizontalStack=0;resizeParent=1;resizeParentMax=0;resizeLast=0;collapsible=1;marginBottom=0;whiteSpace=wrap;html=1;" vertex="1" parent="1">
          <mxGeometry x="400" y="160" width="140" height="120" as="geometry" />
        </mxCell>
        <mxCell id="MPS-d_zFgnI81fA_pEZz-8" value="atributo" style="text;strokeColor=none;fillColor=none;align=left;verticalAlign=middle;spacingLeft=4;spacingRight=4;overflow=hidden;points=[[0,0.5],[1,0.5]];portConstraint=eastwest;rotatable=0;whiteSpace=wrap;html=1;" vertex="1" parent="MPS-d_zFgnI81fA_pEZz-7">
          <mxGeometry y="30" width="140" height="30" as="geometry" />
        </mxCell>
        <mxCell id="MPS-d_zFgnI81fA_pEZz-9" value="Item 2" style="text;strokeColor=none;fillColor=none;align=left;verticalAlign=middle;spacingLeft=4;spacingRight=4;overflow=hidden;points=[[0,0.5],[1,0.5]];portConstraint=eastwest;rotatable=0;whiteSpace=wrap;html=1;" vertex="1" parent="MPS-d_zFgnI81fA_pEZz-7">
          <mxGeometry y="60" width="140" height="30" as="geometry" />
        </mxCell>
        <mxCell id="MPS-d_zFgnI81fA_pEZz-10" value="Item 3" style="text;strokeColor=none;fillColor=none;align=left;verticalAlign=middle;spacingLeft=4;spacingRight=4;overflow=hidden;points=[[0,0.5],[1,0.5]];portConstraint=eastwest;rotatable=0;whiteSpace=wrap;html=1;" vertex="1" parent="MPS-d_zFgnI81fA_pEZz-7">
          <mxGeometry y="90" width="140" height="30" as="geometry" />
        </mxCell>
        <mxCell id="MPS-d_zFgnI81fA_pEZz-11" value="" style="endArrow=none;html=1;rounded=0;entryX=0.002;entryY=0.67;entryDx=0;entryDy=0;entryPerimeter=0;" edge="1" parent="1" target="MPS-d_zFgnI81fA_pEZz-8">
          <mxGeometry width="50" height="50" relative="1" as="geometry">
            <mxPoint x="240" y="210" as="sourcePoint" />
            <mxPoint x="340" y="220" as="targetPoint" />
          </mxGeometry>
        </mxCell>
        <mxCell id="MPS-d_zFgnI81fA_pEZz-12" value="Relación&amp;nbsp;&lt;a style=&quot;color: rgb(138, 180, 248); -webkit-tap-highlight-color: rgba(255, 255, 255, 0.1); outline: 0px; font-family: arial, sans-serif; font-size: small; text-align: left; background-color: rgb(32, 33, 36);&quot; data-ved=&quot;2ahUKEwiLgaL-psv_AhWdqpUCHR6rAb4QFnoECBIQAQ&quot; data-usg=&quot;AOvVaw0KDji20ub7-Oo4NhmWxZ44&quot; data-jsarwt=&quot;1&quot; href=&quot;https://emojiterra.com/es/flecha-hacia-abajo/&quot;&gt;&lt;h3 style=&quot;font-weight: 400; margin: 18px 0px 3px; padding: 5px 0px 0px; font-size: 20px; line-height: 1.3; display: inline-block;&quot; class=&quot;LC20lb MBeuO DKV0Md&quot;&gt;⬇️&lt;/h3&gt;&lt;/a&gt;" style="text;html=1;align=center;verticalAlign=middle;resizable=0;points=[];autosize=1;strokeColor=none;fillColor=none;" vertex="1" parent="1">
          <mxGeometry x="260" y="140" width="100" height="70" as="geometry" />
        </mxCell>
        <mxCell id="MPS-d_zFgnI81fA_pEZz-13" value="Atributo simple" style="text;html=1;align=center;verticalAlign=middle;resizable=0;points=[];autosize=1;strokeColor=none;fillColor=none;" vertex="1" parent="1">
          <mxGeometry x="60" y="340" width="100" height="30" as="geometry" />
        </mxCell>
        <mxCell id="MPS-d_zFgnI81fA_pEZz-14" value="Nombre (atributo derivado)" style="ellipse;whiteSpace=wrap;html=1;" vertex="1" parent="1">
          <mxGeometry x="250" y="330" width="120" height="80" as="geometry" />
        </mxCell>
        <mxCell id="MPS-d_zFgnI81fA_pEZz-16" value="" style="endArrow=none;html=1;rounded=0;entryX=0.902;entryY=0.872;entryDx=0;entryDy=0;entryPerimeter=0;" edge="1" parent="1" target="MPS-d_zFgnI81fA_pEZz-14">
          <mxGeometry width="50" height="50" relative="1" as="geometry">
            <mxPoint x="390" y="440" as="sourcePoint" />
            <mxPoint x="430" y="410" as="targetPoint" />
          </mxGeometry>
        </mxCell>
        <mxCell id="MPS-d_zFgnI81fA_pEZz-17" value="" style="endArrow=none;html=1;rounded=0;" edge="1" parent="1">
          <mxGeometry width="50" height="50" relative="1" as="geometry">
            <mxPoint x="220" y="448" as="sourcePoint" />
            <mxPoint x="270" y="398" as="targetPoint" />
          </mxGeometry>
        </mxCell>
        <mxCell id="MPS-d_zFgnI81fA_pEZz-18" value="apellido_1" style="text;html=1;align=center;verticalAlign=middle;resizable=0;points=[];autosize=1;strokeColor=none;fillColor=none;" vertex="1" parent="1">
          <mxGeometry x="360" y="448" width="80" height="30" as="geometry" />
        </mxCell>
        <mxCell id="MPS-d_zFgnI81fA_pEZz-19" value="apellido_2" style="text;html=1;align=center;verticalAlign=middle;resizable=0;points=[];autosize=1;strokeColor=none;fillColor=none;" vertex="1" parent="1">
          <mxGeometry x="160" y="458" width="80" height="30" as="geometry" />
        </mxCell>
        <mxCell id="MPS-d_zFgnI81fA_pEZz-20" value="" style="endArrow=none;html=1;rounded=0;entryX=0.5;entryY=1;entryDx=0;entryDy=0;" edge="1" parent="1" target="MPS-d_zFgnI81fA_pEZz-14">
          <mxGeometry width="50" height="50" relative="1" as="geometry">
            <mxPoint x="310" y="470" as="sourcePoint" />
            <mxPoint x="340" y="340" as="targetPoint" />
          </mxGeometry>
        </mxCell>
        <mxCell id="MPS-d_zFgnI81fA_pEZz-22" value="segundo nombre" style="text;html=1;align=center;verticalAlign=middle;resizable=0;points=[];autosize=1;strokeColor=none;fillColor=none;" vertex="1" parent="1">
          <mxGeometry x="260" y="478" width="110" height="30" as="geometry" />
        </mxCell>
        <mxCell id="MPS-d_zFgnI81fA_pEZz-25" value="" style="ellipse;whiteSpace=wrap;html=1;" vertex="1" parent="1">
          <mxGeometry x="460" y="335" width="100" height="70" as="geometry" />
        </mxCell>
        <mxCell id="MPS-d_zFgnI81fA_pEZz-23" value="Telefonos" style="ellipse;whiteSpace=wrap;html=1;" vertex="1" parent="1">
          <mxGeometry x="465" y="340" width="90" height="60" as="geometry" />
        </mxCell>
        <mxCell id="MPS-d_zFgnI81fA_pEZz-26" value="atributo multivaluado" style="text;html=1;align=center;verticalAlign=middle;resizable=0;points=[];autosize=1;strokeColor=none;fillColor=none;" vertex="1" parent="1">
          <mxGeometry x="525" y="308" width="130" height="30" as="geometry" />
        </mxCell>
      </root>
    </mxGraphModel>
  </diagram>
</mxfile>
